<?xml version="1.0" encoding="UTF-8" standalone="no"?>
<!-- Created with Inkscape (http://www.inkscape.org/) -->
<svg
   xmlns:svg="http://www.w3.org/2000/svg"
   xmlns="http://www.w3.org/2000/svg"
   version="1.0"
   width="284.89001"
   height="69.379997"
   id="svg2">
  <defs
     id="defs4" />
  <g
     transform="translate(-151.55283,-336.8268)"
     id="layer1">
    <path
       d="M 381.11324,395.6914 C 377.9998,394.67354 375.32961,392.28592 373.7834,389.13724 C 372.57399,386.67442 372.41282,385.79999 372.41282,381.70097 C 372.41282,377.5978 372.57337,376.72878 373.78858,374.2541 C 376.73101,368.26209 382.8359,365.74496 389.56039,367.75118 C 394.74192,369.29704 397.93365,373.82681 398.42571,380.33302 C 399.10789,389.35295 394.23575,395.69234 386.24877,396.17705 C 384.44229,396.28668 382.3203,396.08601 381.11324,395.6914 z M 390.61958,391.17388 C 392.98477,389.28848 394.20144,386.80143 394.52974,383.18094 C 395.03306,377.63028 392.96723,373.14863 389.09469,371.39003 C 384.03967,369.09445 378.38363,371.67684 376.8021,377.00248 C 374.1969,385.77508 378.55462,393.28961 385.97434,392.8193 C 388.19522,392.67852 389.16136,392.33631 390.61958,391.17388 z M 403.95164,381.70097 L 403.95164,367.52073 L 405.90752,367.52073 L 407.86342,367.52073 L 407.86342,373.38841 L 407.86342,379.2561 L 415.19803,379.2561 L 422.53263,379.2561 L 422.53263,373.38841 L 422.53263,367.52073 L 424.48853,367.52073 L 426.44442,367.52073 L 426.44442,381.70097 L 426.44442,395.88121 L 424.48853,395.88121 L 422.53263,395.88121 L 422.53263,389.28007 L 422.53263,382.67892 L 415.19803,382.67892 L 407.86342,382.67892 L 407.86342,389.28007 L 407.86342,395.88121 L 405.90752,395.88121 L 403.95164,395.88121 L 403.95164,381.70097 z M 246.42318,366.20385 C 231.27172,357.45631 218.62493,350.19942 218.31922,350.0774 C 218.01351,349.95537 205.37323,357.00819 190.22971,365.75032 C 163.57673,381.13668 162.67373,381.61326 161.99887,380.64978 C 161.40859,379.80704 161.40454,379.55945 161.97241,379.03485 C 162.93063,378.14959 217.30794,346.83402 217.89937,346.82682 C 218.16955,346.82354 230.86744,354.0215 246.11689,362.82227 C 271.43833,377.43584 273.94039,378.77239 274.96408,378.23192 C 275.58059,377.90645 288.07708,370.71264 302.73406,362.2457 C 317.39105,353.77874 329.61417,346.8444 329.89655,346.83604 C 330.5815,346.81576 371.67936,370.50647 371.67936,370.92159 C 371.67936,371.0998 371.37905,371.6563 371.01201,372.15826 C 370.38452,373.0164 369.14624,372.37939 350.28226,361.4943 C 339.24795,355.12716 330.10087,349.91767 329.95541,349.91767 C 329.74914,349.91767 291.2666,372.02953 276.73954,380.49523 L 273.97129,382.10843 L 246.42318,366.20385 z"
       id="path2537"
       style="fill:#000000" />
  </g>
</svg>
